<svg width="50" height="50" viewBox="0 0 50 50" fill="none" xmlns="http://www.w3.org/2000/svg">
<rect width="50" height="50" rx="5" fill="#E0F6FF"/>
<path d="M28.4786 4.14919C26.9162 2.29519 25.5711 0.412561 25.296 0.021479C25.2669 -0.00715966 25.2237 -0.00715966 25.1946 0.021479C24.9199 0.412561 23.5744 2.29519 22.0119 4.14919C8.60156 21.2526 24.1242 32.7949 24.1242 32.7949L24.2542 32.8817C24.3702 34.663 24.6594 37.2264 24.6594 37.2264H25.2383H25.8167C25.8167 37.2264 26.1063 34.6775 26.2218 32.8817L26.3519 32.7803C26.3664 32.7949 41.889 21.2526 28.4786 4.14919ZM25.2383 32.5489C25.2383 32.5489 24.5439 31.955 24.3556 31.6507V31.6216L25.1946 12.9976C25.1946 12.9398 25.2814 12.9398 25.2814 12.9976L26.1204 31.6216V31.6507C25.9326 31.955 25.2383 32.5489 25.2383 32.5489Z" fill="#00684A"/>
<path d="M6.0992 45.9052L3.82522 40.3911L3.82027 40.3757H2.051V40.7464H2.33652C2.42317 40.7464 2.50471 40.7819 2.56594 40.843C2.62717 40.9039 2.6577 40.9851 2.6577 41.0714L2.60671 46.6212C2.60671 46.7938 2.46394 46.9359 2.29064 46.941L2 46.946V47.3115H3.72339V46.946L3.54481 46.941C3.37151 46.9359 3.22875 46.7938 3.22875 46.6212V41.3912L5.70672 47.3115C5.74237 47.3979 5.82391 47.4538 5.91567 47.4538C6.00744 47.4538 6.08896 47.3979 6.12478 47.3115L8.54647 41.5233L8.58212 46.6212C8.58212 46.7987 8.43952 46.941 8.26094 46.946H8.07741V47.3115H10.0964V46.946H9.8211C9.64781 46.946 9.50505 46.7987 9.49993 46.6261L9.48458 41.0765C9.48458 40.8988 9.62734 40.7567 9.8008 40.7515L10.0964 40.7464V40.3757H8.37317L6.0992 45.9052Z" fill="#00684A"/>
<path d="M21.9542 46.85C21.8979 46.7942 21.8672 46.7181 21.8672 46.6268V43.9085C21.8672 43.3911 21.7139 42.9855 21.4073 42.6963C21.1056 42.4073 20.6865 42.2603 20.165 42.2603C19.434 42.2603 18.8565 42.5544 18.4526 43.1325C18.4475 43.1427 18.4322 43.1477 18.4168 43.1477C18.4015 43.1477 18.3912 43.1376 18.3912 43.1224L18.2021 42.3971H17.8852L17.0724 42.8587V43.1122H17.282C17.3792 43.1122 17.4609 43.1376 17.5172 43.1883C17.5735 43.239 17.604 43.315 17.604 43.4217V46.6219C17.604 46.7131 17.5735 46.7892 17.5172 46.845C17.4609 46.9008 17.3843 46.9312 17.2922 46.9312H17.0877V47.3014H18.9587V46.9312H18.7542C18.6623 46.9312 18.5855 46.9008 18.5292 46.845C18.4731 46.7892 18.4424 46.7131 18.4424 46.6219V44.5019C18.4424 44.233 18.5038 43.9643 18.6162 43.7006C18.7337 43.442 18.9075 43.2238 19.1376 43.0564C19.3677 42.8891 19.6436 42.8079 19.9607 42.8079C20.3185 42.8079 20.5893 42.9194 20.758 43.1427C20.9267 43.3659 21.0136 43.6549 21.0136 43.9998V46.6168C21.0136 46.708 20.9829 46.7841 20.9267 46.8399C20.8705 46.8957 20.7938 46.926 20.7019 46.926H20.4974V47.2964H22.3681V46.926H22.1638C22.0871 46.9363 22.0154 46.9057 21.9542 46.85Z" fill="#00684A"/>
<path d="M39.0473 40.794C38.5302 40.5185 37.9521 40.3757 37.3285 40.3757H34.895V40.7481H35.1333C35.2244 40.7481 35.3056 40.7837 35.3868 40.8653C35.4627 40.9418 35.5033 41.0285 35.5033 41.1202V46.6075C35.5033 46.6992 35.4627 46.7859 35.3868 46.8624C35.3107 46.9389 35.2244 46.9796 35.1333 46.9796H34.895V47.352H37.3285C37.9521 47.352 38.5302 47.2092 39.0473 46.9337C39.5644 46.6585 39.9852 46.2505 40.2894 45.7302C40.5936 45.2102 40.7509 44.5829 40.7509 43.8689C40.7509 43.1551 40.5936 42.5329 40.2894 42.0077C39.9801 41.4772 39.5644 41.0692 39.0473 40.794ZM39.7723 43.8588C39.7723 44.5116 39.6556 45.0623 39.4276 45.506C39.1995 45.9496 38.8951 46.281 38.52 46.4952C38.1448 46.7095 37.7291 46.8166 37.283 46.8166H36.7911C36.6999 46.8166 36.6187 46.7808 36.5376 46.6992C36.4616 46.6226 36.4209 46.536 36.4209 46.4442V41.2681C36.4209 41.1764 36.4564 41.0948 36.5376 41.0131C36.6137 40.9367 36.6999 40.8959 36.7911 40.8959H37.283C37.7291 40.8959 38.1448 41.0031 38.52 41.2171C38.8951 41.4314 39.1995 41.7629 39.4276 42.2066C39.6556 42.6502 39.7723 43.2061 39.7723 43.8588Z" fill="#00684A"/>
<path d="M46.5038 44.231C46.2789 43.9709 45.8445 43.7517 45.3333 43.6344C46.0387 43.2825 46.4015 42.7878 46.4015 42.1504C46.4015 41.8037 46.3096 41.4926 46.1255 41.2274C45.9415 40.9623 45.6809 40.7481 45.3487 40.6002C45.0164 40.4523 44.6281 40.3757 44.1884 40.3757H41.4337V40.7481H41.6533C41.7454 40.7481 41.8271 40.7837 41.909 40.8653C41.9856 40.9418 42.0265 41.0285 42.0265 41.1202V46.6075C42.0265 46.6992 41.9856 46.7859 41.909 46.8624C41.8322 46.9389 41.7454 46.9796 41.6533 46.9796H41.4132V47.352H44.4031C44.858 47.352 45.2822 47.2754 45.6656 47.1224C46.049 46.9694 46.3556 46.7451 46.5753 46.4493C46.8002 46.1536 46.9126 45.7915 46.9126 45.3733C46.9075 44.9245 46.7747 44.5421 46.5038 44.231ZM43.0742 46.7043C42.9976 46.6278 42.9567 46.5411 42.9567 46.4493V43.9862H44.3776C44.8785 43.9862 45.2617 44.1138 45.5276 44.3686C45.7933 44.6236 45.9262 44.9552 45.9262 45.3632C45.9262 45.608 45.8649 45.8476 45.7524 46.0669C45.6349 46.2912 45.4611 46.4696 45.226 46.6075C44.996 46.7451 44.7098 46.8166 44.3776 46.8166H43.3299C43.2378 46.8215 43.1561 46.7808 43.0742 46.7043ZM42.9618 43.4611V41.2732C42.9618 41.1815 42.9976 41.0999 43.0793 41.0182C43.1561 40.9418 43.2429 40.9011 43.335 40.9011H44.0095C44.4951 40.9011 44.8529 41.0234 45.0778 41.2581C45.3026 41.4977 45.4152 41.8037 45.4152 42.181C45.4152 42.5685 45.3077 42.8796 45.0983 43.1143C44.8887 43.3437 44.5718 43.4611 44.1528 43.4611H42.9618Z" fill="#00684A"/>
<path d="M14.8319 42.5854C14.4414 42.372 14.0052 42.2603 13.5335 42.2603C13.0618 42.2603 12.6205 42.3669 12.235 42.5854C11.8445 42.799 11.5352 43.1089 11.3069 43.5002C11.0787 43.8915 10.962 44.349 10.962 44.8572C10.962 45.3654 11.0787 45.8227 11.3069 46.214C11.5352 46.6054 11.8445 46.9155 12.235 47.1289C12.6256 47.3423 13.0618 47.4542 13.5335 47.4542C14.0052 47.4542 14.4464 47.3474 14.8319 47.1289C15.2224 46.9155 15.5319 46.6054 15.7601 46.214C15.9884 45.8227 16.1049 45.3654 16.1049 44.8572C16.1049 44.349 15.9884 43.8915 15.7601 43.5002C15.5319 43.1089 15.2224 42.8041 14.8319 42.5854ZM15.2072 44.8572C15.2072 45.4822 15.0551 45.9906 14.7507 46.3565C14.4515 46.7224 14.0407 46.9104 13.5335 46.9104C13.0263 46.9104 12.6154 46.7224 12.3162 46.3565C12.0118 45.9906 11.8596 45.4822 11.8596 44.8572C11.8596 44.232 12.0118 43.7239 12.3162 43.358C12.6154 42.9921 13.0263 42.8041 13.5335 42.8041C14.0407 42.8041 14.4515 42.9921 14.7507 43.358C15.0551 43.729 15.2072 44.232 15.2072 44.8572Z" fill="#00684A"/>
<path d="M32.8074 42.5854C32.4169 42.372 31.9807 42.2603 31.509 42.2603C31.0373 42.2603 30.596 42.3669 30.2106 42.5854C29.8199 42.799 29.5106 43.1089 29.2824 43.5002C29.0541 43.8915 28.9374 44.349 28.9374 44.8572C28.9374 45.3654 29.0541 45.8227 29.2824 46.214C29.5106 46.6054 29.8199 46.9155 30.2106 47.1289C30.6011 47.3423 31.0373 47.4542 31.509 47.4542C31.9807 47.4542 32.4218 47.3474 32.8074 47.1289C33.1979 46.9155 33.5073 46.6054 33.7356 46.214C33.9639 45.8227 34.0805 45.3654 34.0805 44.8572C34.0805 44.349 33.9639 43.8915 33.7356 43.5002C33.5073 43.1089 33.1929 42.8041 32.8074 42.5854ZM33.1827 44.8572C33.1827 45.4822 33.0305 45.9906 32.7262 46.3565C32.427 46.7224 32.0162 46.9104 31.509 46.9104C31.0018 46.9104 30.5909 46.7224 30.2916 46.3565C29.9873 45.9906 29.8351 45.4822 29.8351 44.8572C29.8351 44.2269 29.9873 43.7239 30.2916 43.358C30.5909 42.9921 31.0018 42.8041 31.509 42.8041C32.0162 42.8041 32.427 42.9921 32.7262 43.358C33.0254 43.729 33.1827 44.232 33.1827 44.8572Z" fill="#00684A"/>
<path d="M25.5579 42.2603C25.1493 42.2603 24.7763 42.3471 24.4393 42.5205C24.1021 42.6942 23.8365 42.929 23.6474 43.2302C23.4584 43.5263 23.3614 43.8582 23.3614 44.2106C23.3614 44.5271 23.433 44.8181 23.581 45.0785C23.7241 45.3286 23.9182 45.538 24.1633 45.7115L23.4328 46.7021C23.3409 46.8245 23.3307 46.9879 23.3972 47.1206C23.4686 47.2586 23.6015 47.3401 23.7547 47.3401H23.9641C23.7598 47.4781 23.5964 47.6415 23.484 47.8354C23.3511 48.0549 23.2848 48.2847 23.2848 48.5195C23.2848 48.9587 23.4789 49.3212 23.862 49.5918C24.2401 49.8623 24.7712 50.0002 25.4404 50.0002C25.9052 50.0002 26.3497 49.9236 26.7532 49.7755C27.1618 49.6275 27.4939 49.408 27.739 49.1221C27.9894 48.8361 28.117 48.489 28.117 48.0908C28.117 47.672 27.9638 47.376 27.6061 47.0901C27.2996 46.8501 26.8195 46.7224 26.2219 46.7224H24.1787C24.1736 46.7224 24.1684 46.7173 24.1684 46.7173C24.1684 46.7173 24.1633 46.7072 24.1684 46.7021L24.6997 45.9873C24.8428 46.0536 24.9755 46.0944 25.093 46.12C25.2156 46.1456 25.3536 46.1558 25.5068 46.1558C25.9359 46.1558 26.3241 46.069 26.6613 45.8953C26.9983 45.7217 27.2691 45.4869 27.4632 45.1857C27.6573 44.8896 27.7543 44.5577 27.7543 44.2055C27.7543 43.8277 27.5705 43.1383 27.0699 42.7861C27.0699 42.781 27.075 42.781 27.075 42.781L28.1732 42.9034V42.3981H26.416C26.1402 42.3061 25.8542 42.2603 25.5579 42.2603ZM26.1709 45.4512C25.9767 45.5532 25.7674 45.6095 25.5579 45.6095C25.2156 45.6095 24.9143 45.4869 24.6588 45.2469C24.4035 45.0069 24.2757 44.6547 24.2757 44.2055C24.2757 43.7562 24.4035 43.4038 24.6588 43.1639C24.9143 42.9239 25.2156 42.8014 25.5579 42.8014C25.7723 42.8014 25.9767 42.8524 26.1709 42.9597C26.365 43.0617 26.5233 43.22 26.651 43.4294C26.7737 43.6387 26.84 43.8991 26.84 44.2055C26.84 44.5169 26.7788 44.7772 26.651 44.9815C26.5284 45.1908 26.365 45.349 26.1709 45.4512ZM24.7865 47.3352H26.1709C26.554 47.3352 26.7991 47.4118 26.9626 47.575C27.126 47.7384 27.2077 47.9581 27.2077 48.2132C27.2077 48.5859 27.0597 48.8924 26.7634 49.1221C26.4672 49.3519 26.0688 49.4692 25.5782 49.4692C25.1493 49.4692 24.7916 49.3722 24.5312 49.1885C24.2706 49.0046 24.1379 48.7239 24.1379 48.3664C24.1379 48.1418 24.1991 47.9325 24.3218 47.7486C24.4444 47.5649 24.5924 47.4321 24.7865 47.3352Z" fill="#00684A"/>
<path d="M47.948 47.2664C47.847 47.2113 47.7713 47.1311 47.7105 47.036C47.6549 46.9357 47.6247 46.8304 47.6247 46.7152C47.6247 46.6 47.6549 46.4897 47.7105 46.3945C47.7661 46.2942 47.847 46.2191 47.948 46.1639C48.049 46.1088 48.1603 46.0786 48.2865 46.0786C48.4129 46.0786 48.524 46.1088 48.6252 46.1639C48.7262 46.2191 48.802 46.2993 48.8627 46.3945C48.9183 46.4947 48.9485 46.6 48.9485 46.7152C48.9485 46.8304 48.9183 46.9408 48.8627 47.036C48.8071 47.1362 48.7262 47.2113 48.6252 47.2664C48.524 47.3216 48.4129 47.3518 48.2865 47.3518C48.1654 47.3518 48.049 47.3216 47.948 47.2664ZM48.5696 47.1913C48.6556 47.1463 48.7161 47.076 48.7666 46.9959C48.8122 46.9106 48.8374 46.8154 48.8374 46.7102C48.8374 46.6049 48.8122 46.5097 48.7666 46.4245C48.7212 46.3394 48.6556 46.2742 48.5696 46.229C48.4838 46.1839 48.3926 46.1588 48.2865 46.1588C48.1804 46.1588 48.0895 46.1839 48.0036 46.229C47.9177 46.2742 47.8571 46.3443 47.8066 46.4245C47.761 46.5097 47.7358 46.6049 47.7358 46.7102C47.7358 46.8154 47.761 46.9106 47.8066 46.9959C47.852 47.0811 47.9177 47.1463 48.0036 47.1913C48.0895 47.2364 48.1804 47.2615 48.2865 47.2615C48.3926 47.2615 48.4887 47.2364 48.5696 47.1913ZM48.0137 47.0159V46.9708L48.0238 46.9657H48.0541C48.0642 46.9657 48.0744 46.9608 48.0794 46.9558C48.0895 46.9458 48.0895 46.9408 48.0895 46.9307V46.4646C48.0895 46.4546 48.0845 46.4445 48.0794 46.4396C48.0693 46.4295 48.0642 46.4295 48.0541 46.4295H48.0238L48.0137 46.4245V46.3793L48.0238 46.3744H48.2865C48.3624 46.3744 48.4181 46.3894 48.4635 46.4245C48.509 46.4595 48.5291 46.5048 48.5291 46.5648C48.5291 46.6099 48.514 46.6551 48.4786 46.6851C48.4433 46.7201 48.4029 46.7403 48.3522 46.7452L48.4129 46.7654L48.5291 46.9507C48.5392 46.9657 48.5494 46.9708 48.5645 46.9708H48.5948L48.5999 46.9758V47.0208L48.5948 47.026H48.4382L48.4281 47.0208L48.2664 46.7503H48.226V46.9307C48.226 46.9408 48.2311 46.9507 48.236 46.9558C48.2463 46.9657 48.2512 46.9657 48.2613 46.9657H48.2916L48.3017 46.9708V47.0159L48.2916 47.0208H48.0238L48.0137 47.0159ZM48.2715 46.6901C48.3119 46.6901 48.3473 46.68 48.3674 46.6551C48.3877 46.635 48.4029 46.6 48.4029 46.5599C48.4029 46.5198 48.3926 46.4897 48.3725 46.4646C48.3522 46.4396 48.322 46.4295 48.2865 46.4295H48.2664C48.2563 46.4295 48.2462 46.4344 48.2411 46.4396C48.2311 46.4496 48.2311 46.4546 48.2311 46.4646V46.6901H48.2715Z" fill="#00684A"/>
</svg>
