<svg width="50" height="50" viewBox="0 0 50 50" fill="none" xmlns="http://www.w3.org/2000/svg">
<path d="M28.4147 7.01563C26.5259 4.77448 24.9 2.49871 24.5674 2.02596C24.5322 1.99135 24.48 1.99135 24.4448 2.02596C24.1128 2.49871 22.4863 4.77448 20.5976 7.01563C4.38682 27.6905 23.1509 41.6431 23.1509 41.6431L23.3081 41.7481C23.4483 43.9013 23.7978 47 23.7978 47H24.4976H25.1968C25.1968 47 25.547 43.9189 25.6866 41.7481L25.8438 41.6255C25.8614 41.6431 44.6254 27.6905 28.4147 7.01563ZM24.4976 41.3457C24.4976 41.3457 23.6582 40.6278 23.4307 40.2601V40.2249L24.4448 17.7118C24.4448 17.642 24.5498 17.642 24.5498 17.7118L25.564 40.2249V40.2601C25.337 40.6278 24.4976 41.3457 24.4976 41.3457Z" fill="#00684A"/>
</svg>
