<svg width="32" height="32" viewBox="0 0 32 32" fill="none" xmlns="http://www.w3.org/2000/svg">
<g clip-path="url(#clip0_1314:6)">
<rect width="32" height="32" rx="2" fill="url(#paint0_angular_1314:6)"/>
<path d="M23.648 12.96C25.216 12.96 26.488 13.36 27.464 14.16C28.44 14.96 28.928 16.168 28.928 17.784C28.928 18.632 28.744 19.448 28.376 20.232C28.008 21 27.424 21.632 26.624 22.128C25.84 22.608 24.808 22.848 23.528 22.848H20.888V30H19.712V12.96H23.648ZM23.528 21.72C24.36 21.72 25.048 21.592 25.592 21.336C26.152 21.064 26.584 20.728 26.888 20.328C27.208 19.912 27.432 19.48 27.56 19.032C27.704 18.584 27.776 18.168 27.776 17.784C27.776 16.696 27.424 15.808 26.72 15.12C26.032 14.432 25.048 14.088 23.768 14.088H20.888V21.72H23.528Z" fill="black"/>
<path d="M2.712 19V1.96H6.912C8.56 1.96 9.96 2.224 11.112 2.752C12.28 3.264 13.224 3.944 13.944 4.792C14.664 5.64 15.192 6.568 15.528 7.576C15.864 8.584 16.032 9.584 16.032 10.576C16.032 11.872 15.808 13.04 15.36 14.08C14.912 15.104 14.296 15.984 13.512 16.72C12.744 17.456 11.864 18.024 10.872 18.424C9.88 18.808 8.832 19 7.728 19H2.712ZM3.888 17.872H7.416C8.792 17.872 10.04 17.576 11.16 16.984C12.28 16.392 13.168 15.544 13.824 14.44C14.496 13.336 14.832 12.024 14.832 10.504C14.832 9.528 14.664 8.6 14.328 7.72C14.008 6.824 13.52 6.032 12.864 5.344C12.208 4.656 11.4 4.112 10.44 3.712C9.48 3.312 8.36 3.112 7.08 3.112H3.888V17.872Z" fill="black"/>
</g>
<defs>
<radialGradient id="paint0_angular_1314:6" cx="0" cy="0" r="1" gradientUnits="userSpaceOnUse" gradientTransform="translate(16 16) rotate(90) scale(16)">
<stop offset="0.239583" stop-color="#D8F3FF"/>
<stop offset="0.552083" stop-color="#F7F8F6"/>
<stop offset="0.864583" stop-color="#F29F96"/>
</radialGradient>
<clipPath id="clip0_1314:6">
<rect width="32" height="32" rx="2" fill="white"/>
</clipPath>
</defs>
</svg>
