<svg width="16" height="16" viewBox="0 0 16 16" fill="none" xmlns="http://www.w3.org/2000/svg">
<g clip-path="url(#clip0_1313:5)">
<rect width="16" height="16" rx="2" fill="url(#paint0_angular_1313:5)"/>
<path d="M1.548 10C1.396 10 1.272 9.956 1.176 9.868C1.088 9.78 1.044 9.664 1.044 9.52V2.02C1.044 1.876 1.088 1.76 1.176 1.672C1.272 1.584 1.396 1.54 1.548 1.54H3.888C5.24 1.54 6.284 1.908 7.02 2.644C7.764 3.372 8.136 4.412 8.136 5.764C8.136 7.116 7.764 8.16 7.02 8.896C6.276 9.632 5.232 10 3.888 10H1.548ZM3.828 9.16C6.02 9.16 7.116 8.028 7.116 5.764C7.116 3.508 6.02 2.38 3.828 2.38H2.028V9.16H3.828Z" fill="black"/>
<path d="M9.536 15.06C9.384 15.06 9.264 15.016 9.176 14.928C9.088 14.832 9.044 14.708 9.044 14.556V7.02C9.044 6.876 9.088 6.76 9.176 6.672C9.272 6.584 9.396 6.54 9.548 6.54H12.392C13.28 6.54 13.968 6.756 14.456 7.188C14.952 7.62 15.2 8.232 15.2 9.024C15.2 9.816 14.952 10.432 14.456 10.872C13.96 11.312 13.272 11.532 12.392 11.532H10.028V14.556C10.028 14.708 9.984 14.832 9.896 14.928C9.808 15.016 9.688 15.06 9.536 15.06ZM12.296 10.716C13.584 10.716 14.228 10.152 14.228 9.024C14.228 7.912 13.584 7.356 12.296 7.356H10.028V10.716H12.296Z" fill="black"/>
</g>
<defs>
<radialGradient id="paint0_angular_1313:5" cx="0" cy="0" r="1" gradientUnits="userSpaceOnUse" gradientTransform="translate(8 8) rotate(90) scale(8)">
<stop offset="0.239583" stop-color="#D8F3FF"/>
<stop offset="0.552083" stop-color="#F7F8F6"/>
<stop offset="0.864583" stop-color="#F29F96"/>
</radialGradient>
<clipPath id="clip0_1313:5">
<rect width="16" height="16" rx="2" fill="white"/>
</clipPath>
</defs>
</svg>
