<svg width="752" height="520" viewBox="0 0 752 520" fill="none" xmlns="http://www.w3.org/2000/svg">
<g filter="url(#filter0_f)">
<path d="M7 39C7 28.5066 15.5066 20 26 20V490H7V39Z" fill="black" fill-opacity="0.15"/>
<path d="M734 514C740.627 514 746 508.627 746 502C746 495.373 740.627 490 734 490L6 490C6 503.255 16.7452 514 30 514H734Z" fill="black" fill-opacity="0.15"/>
</g>
<path d="M26 20C26 8.95432 34.9543 0 46 0V500C34.9543 500 26 491.046 26 480V20Z" fill="url(#paint0_linear)"/>
<path d="M746 20C746 8.95432 737.046 0 726 0V500C737.046 500 746 491.046 746 480V20Z" fill="url(#paint1_linear)"/>
<path d="M46 0C34.9543 0 26 8.95431 26 20L746 20C746 8.95431 737.046 0 726 0L46 0Z" fill="url(#paint2_linear)"/>
<path d="M726 500C737.046 500 746 491.046 746 480L26 480C26 491.046 34.9543 500 46 500L726 500Z" fill="url(#paint3_linear)"/>
<path fill-rule="evenodd" clip-rule="evenodd" d="M735.882 481H736V491H726V490.882C731.109 490.151 735.151 486.109 735.882 481Z" fill="black"/>
<path fill-rule="evenodd" clip-rule="evenodd" d="M46 490.882V491H36V481H36.1181C36.849 486.109 40.8905 490.151 46 490.882Z" fill="black"/>
<path fill-rule="evenodd" clip-rule="evenodd" d="M735.882 19.5H736V9.5L726 9.5V9.61815C731.109 10.349 735.151 14.3905 735.882 19.5Z" fill="black"/>
<path fill-rule="evenodd" clip-rule="evenodd" d="M46 9.61815V9.5L36 9.5V19.5H36.1181C36.849 14.3905 40.8905 10.349 46 9.61815Z" fill="black"/>
<defs>
<filter id="filter0_f" x="0" y="14" width="752" height="506" filterUnits="userSpaceOnUse" color-interpolation-filters="sRGB">
<feFlood flood-opacity="0" result="BackgroundImageFix"/>
<feBlend mode="normal" in="SourceGraphic" in2="BackgroundImageFix" result="shape"/>
<feGaussianBlur stdDeviation="3" result="effect1_foregroundBlur"/>
</filter>
<linearGradient id="paint0_linear" x1="26" y1="250" x2="46" y2="250" gradientUnits="userSpaceOnUse">
<stop/>
<stop offset="0.505208"/>
<stop offset="0.505308" stop-opacity="0"/>
<stop offset="1" stop-opacity="0"/>
</linearGradient>
<linearGradient id="paint1_linear" x1="746" y1="250" x2="726" y2="250" gradientUnits="userSpaceOnUse">
<stop/>
<stop offset="0.505208"/>
<stop offset="0.505308" stop-opacity="0"/>
<stop offset="1" stop-opacity="0"/>
</linearGradient>
<linearGradient id="paint2_linear" x1="386" y1="2.98023e-07" x2="386" y2="20" gradientUnits="userSpaceOnUse">
<stop/>
<stop offset="0.494792"/>
<stop offset="0.494892" stop-opacity="0"/>
<stop offset="1" stop-opacity="0"/>
</linearGradient>
<linearGradient id="paint3_linear" x1="386" y1="500" x2="386" y2="480" gradientUnits="userSpaceOnUse">
<stop/>
<stop offset="0.494792"/>
<stop offset="0.494892" stop-opacity="0"/>
<stop offset="1" stop-opacity="0"/>
</linearGradient>
</defs>
</svg>
